<svg preserveAspectRatio="none" width="100%" height="100%" overflow="visible" style="display: block;" viewBox="0 0 40 40" fill="none" xmlns="http://www.w3.org/2000/svg">
<g id="Group">
<path id="Vector" d="M13.4082 17.6373C12.7566 17.6373 12.2266 18.1673 12.2266 18.8189V20.0045H14.5898V18.8189C14.5898 18.1673 14.0598 17.6373 13.4082 17.6373ZM22.3516 17.6373H21.1719V20.0045H22.3516C23.0042 20.0045 23.5352 19.4735 23.5352 18.8209C23.5352 18.1684 23.0041 17.6373 22.3516 17.6373Z" fill="var(--fill-0, white)"/>
<path id="Vector_2" d="M28.58 7.34703L30.0941 4.69727H33.1502C33.6345 6.06672 34.9414 7.05078 36.4746 7.05078C38.4185 7.05078 40 5.4693 40 3.52539C40 1.58148 38.4185 0 36.4746 0C34.9415 0 33.6345 0.984063 33.1502 2.35352H28.734L26.5467 6.18117C25.5799 5.72116 24.5672 5.36475 23.5254 5.11789V0H21.1816V4.75234C20.395 4.69198 19.605 4.69198 18.8184 4.75234V0H16.4746V5.11789C15.4328 5.3647 14.42 5.72111 13.4533 6.18117L11.266 2.35352H6.84977C6.36555 0.984063 5.05852 0 3.52539 0C1.58148 0 0 1.58148 0 3.52539C0 5.4693 1.58148 7.05078 3.52539 7.05078C5.05852 7.05078 6.36555 6.06672 6.84977 4.69727H9.90586L11.42 7.34703C9.70247 8.51558 8.23882 10.0192 7.11695 11.7676H0V14.1113H5.88687C5.25795 15.6125 4.87459 17.2052 4.75148 18.8281H0V21.1719H4.75148C4.87457 22.7948 5.2579 24.3875 5.8868 25.8887H0V28.2324H7.11695C8.23884 29.9808 9.70248 31.4844 11.42 32.653L9.90586 35.3027H6.84977C6.36555 33.9333 5.05859 32.9492 3.52539 32.9492C1.58148 32.9492 0 34.5307 0 36.4746C0 38.4185 1.58148 40 3.52539 40C5.05852 40 6.36555 39.0159 6.84977 37.6465H11.266L13.4533 33.8188C14.4201 34.2788 15.4328 34.6353 16.4746 34.8821V40H18.8184V35.2477C19.605 35.308 20.395 35.308 21.1816 35.2477V40H23.5254V34.8821C24.5672 34.6353 25.58 34.2789 26.5467 33.8188L28.734 37.6465H33.1502C33.6345 39.0159 34.9415 40 36.4746 40C38.4185 40 40 38.4185 40 36.4746C40 34.5307 38.4185 32.9492 36.4746 32.9492C34.9415 32.9492 33.6345 33.9333 33.1502 35.3027H30.0941L28.58 32.653C30.2975 31.4844 31.7612 29.9808 32.883 28.2324H40V25.8887H34.1131C34.7421 24.3875 35.1254 22.7948 35.2484 21.1719H40V18.8281H35.2485C35.1254 17.2052 34.7421 15.6125 34.1132 14.1113H40V11.7676H32.883C31.7612 10.0192 30.2975 8.5156 28.58 7.34703ZM16.9336 24.707H14.5898V22.3482H12.2266V24.7066H9.88281V18.819C9.88281 16.8751 11.4643 15.2936 13.4082 15.2936C15.3521 15.2936 16.9336 16.875 16.9336 18.8189V24.707ZM22.3516 22.3482H21.1719V24.7066H18.8281V15.2935H22.3516C24.2966 15.2935 25.8789 16.8759 25.8789 18.8209C25.8789 20.7659 24.2965 22.3482 22.3516 22.3482ZM29.7546 24.707H27.4109V15.293H29.7546V24.707Z" fill="var(--fill-0, white)"/>
</g>
</svg>
