<svg preserveAspectRatio="none" width="100%" height="100%" overflow="visible" style="display: block;" viewBox="0 0 70 70" fill="none" xmlns="http://www.w3.org/2000/svg">
<g id="Frame 14">
<rect width="70" height="70" rx="35" fill="var(--fill-0, #619591)"/>
<path id="Union" d="M47.7246 47.404L32.5508 56V48.1908L43.7889 41.8799L47.7246 39.6678V47.404ZM18.8959 22.719L22.8953 24.9862V43.1901C22.8954 43.2154 22.9023 43.241 22.9057 43.2662C22.9091 43.2991 22.9108 43.3336 22.9193 43.3656C22.9262 43.3927 22.9415 43.4164 22.9527 43.4418C22.9638 43.4704 22.9729 43.5011 22.9882 43.5264L22.9892 43.5295C23.003 43.5532 23.0242 43.5723 23.0414 43.5951C23.0604 43.6188 23.0754 43.6458 23.0978 43.667L23.0999 43.6691C23.1188 43.6878 23.1442 43.7019 23.1657 43.7188C23.1904 43.7374 23.2133 43.7587 23.2398 43.7738L23.2429 43.7759L23.245 43.778L31.1717 48.1918V55.9989L16 47.404V21.0789L18.8959 22.719ZM47.0283 38.4982L41.9735 41.3364L31.8607 47.017L24.9769 43.1838L32.2063 39.0883L40.1393 34.5952L47.0283 38.4982ZM31.1728 38.107L27.1724 40.3731L24.2754 42.0142V24.9862L28.2758 22.7201L31.1728 21.0789V38.107ZM43.7242 27.3284L47.7246 29.5945V37.3255L44.8276 35.6844L40.8272 33.4193V25.6883L43.7242 27.3284ZM56 33.4193L49.1037 37.3255V29.5945L53.1041 27.3284L56 25.6883V33.4193ZM55.3079 24.5135L48.4147 28.4197L41.5204 24.5146L48.4147 20.6083L55.3079 24.5135ZM30.4796 19.9051L23.5843 23.8114L16.6911 19.9051L23.5864 16L30.4796 19.9051Z" fill="var(--fill-0, white)"/>
</g>
</svg>
